<svg width="46" height="45" viewBox="0 0 46 45" fill="none" xmlns="http://www.w3.org/2000/svg">
<g clip-path="url(#clip0_2396_1290)">
<path fill-rule="evenodd" clip-rule="evenodd" d="M0.664062 22.4675C0.664062 33.5467 8.71063 42.7594 19.2345 44.6276V28.5326H13.6634V22.3431H19.2345V17.3904C19.2345 11.8192 22.8242 8.72541 27.9013 8.72541C29.5095 8.72541 31.244 8.9724 32.8522 9.21939V14.9149H30.0053C27.2811 14.9149 26.6627 16.2762 26.6627 18.0106V22.3431H32.6052L31.6154 28.5326H26.6627V44.6276C37.1865 42.7594 45.2331 33.5485 45.2331 22.4675C45.2331 10.1423 35.2051 0.0585938 22.9486 0.0585938C10.6921 0.0585938 0.664062 10.1423 0.664062 22.4675Z" fill="white"/>
</g>
<defs>
<clipPath id="clip0_2396_1290">
<rect width="44.569" height="44.569" fill="white" transform="translate(0.664062 0.0585938)"/>
</clipPath>
</defs>
</svg>
