<svg width="43" height="44" viewBox="0 0 43 44" fill="none" xmlns="http://www.w3.org/2000/svg">
<path d="M21.44 0.949219C9.62476 0.949219 0.046875 10.5271 0.046875 22.3424C0.046875 34.1576 9.62476 43.7355 21.44 43.7355C33.2553 43.7355 42.8332 34.1576 42.8332 22.3424C42.8332 10.5271 33.2553 0.949219 21.44 0.949219ZM30.1421 18.4738C30.151 18.6565 30.1533 18.8392 30.1533 19.0175C30.1533 24.5886 25.917 31.0088 18.1664 31.0088C15.8762 31.0126 13.6337 30.3549 11.7084 29.1146C12.0359 29.1547 12.3724 29.1703 12.7134 29.1703C14.6878 29.1703 16.504 28.4996 17.9458 27.3675C17.0672 27.3503 16.2158 27.0593 15.5104 26.5352C14.8049 26.0111 14.2806 25.28 14.0104 24.4438C14.6414 24.5638 15.2914 24.5386 15.9112 24.3702C14.9576 24.1774 14.0999 23.6607 13.4838 22.9076C12.8676 22.1546 12.5309 21.2117 12.5307 20.2387V20.1874C13.0989 20.5017 13.7496 20.6933 14.4404 20.7156C13.5464 20.1204 12.9135 19.2062 12.6712 18.1598C12.4288 17.1135 12.5954 16.0141 13.1368 15.0865C14.1952 16.3879 15.5151 17.4526 17.0111 18.2115C18.5071 18.9704 20.1458 19.4067 21.8211 19.4922C21.6081 18.5881 21.6998 17.639 22.0818 16.7924C22.4639 15.9458 23.115 15.2492 23.9338 14.8108C24.7527 14.3724 25.6934 14.2168 26.6098 14.3682C27.5262 14.5196 28.3669 14.9696 29.0012 15.6481C29.9442 15.4615 30.8485 15.1156 31.6753 14.6252C31.361 15.6016 30.703 16.4307 29.8235 16.9584C30.6588 16.8578 31.4744 16.6332 32.2435 16.2921C31.6786 17.1387 30.9669 17.8775 30.1421 18.4738V18.4738Z" fill="white"/>
</svg>
