<svg width="44" height="44" viewBox="0 0 44 44" fill="none" xmlns="http://www.w3.org/2000/svg">
<path d="M21.6978 0.949219C9.88257 0.949219 0.304688 10.5271 0.304688 22.3424C0.304688 34.1576 9.88257 43.7355 21.6978 43.7355C33.5131 43.7355 43.091 34.1576 43.091 22.3424C43.091 10.5271 33.5131 0.949219 21.6978 0.949219ZM16.461 31.2094H12.1289V17.2682H16.461V31.2094ZM14.2682 15.5567C12.8999 15.5567 12.0152 14.5873 12.0152 13.3884C12.0152 12.165 12.9266 11.2246 14.3239 11.2246C15.7211 11.2246 16.5768 12.165 16.6036 13.3884C16.6036 14.5873 15.7211 15.5567 14.2682 15.5567ZM32.283 31.2094H27.9509V23.4833C27.9509 21.685 27.3224 20.4638 25.7558 20.4638C24.5592 20.4638 23.8483 21.2905 23.5341 22.0861C23.4182 22.3691 23.3892 22.7702 23.3892 23.1691V31.2071H19.0549V21.7139C19.0549 19.9735 18.9992 18.5183 18.9412 17.2659H22.7051L22.9034 19.2025H22.9903C23.5608 18.2933 24.9581 16.9517 27.2957 16.9517C30.1459 16.9517 32.283 18.8615 32.283 22.9663V31.2094V31.2094Z" fill="white"/>
</svg>
