<svg width="288" height="154" viewBox="0 0 288 154" fill="none" xmlns="http://www.w3.org/2000/svg">
<g filter="url(#filter0_b_2396_1139)">
<g filter="url(#filter1_ddd_2396_1139)">
<rect x="50.3984" y="34.0488" width="203.7" height="69.3" rx="10.5" fill="#FAFAFA" fill-opacity="0.3" shape-rendering="crispEdges"/>
</g>
<path d="M91.4805 56.9355H88.1992C88.0252 56.9355 87.8583 57.0047 87.7352 57.1278C87.6121 57.2508 87.543 57.4177 87.543 57.5918V57.6692L92.1367 61.3442V57.5918C92.1367 57.4177 92.0676 57.2508 91.9445 57.1278C91.8214 57.0047 91.6545 56.9355 91.4805 56.9355Z" fill="#282828"/>
<path d="M81.3086 65.4668C81.3086 65.0317 81.4814 64.6144 81.7891 64.3067C82.0968 63.999 82.5141 63.8262 82.9492 63.8262C83.3843 63.8262 83.8016 63.999 84.1093 64.3067C84.417 64.6144 84.5898 65.0317 84.5898 65.4668C84.5898 65.9019 84.417 66.3192 84.1093 66.6269C83.8016 66.9346 83.3843 67.1074 82.9492 67.1074C82.5141 67.1074 82.0968 66.9346 81.7891 66.6269C81.4814 66.3192 81.3086 65.9019 81.3086 65.4668Z" fill="#282828"/>
<path fill-rule="evenodd" clip-rule="evenodd" d="M94.4336 67.3854L95.46 68.207C95.6643 68.3663 95.9231 68.4385 96.1804 68.4082C96.4377 68.3778 96.6726 68.2473 96.8342 68.0449C96.9959 67.8425 97.0712 67.5845 97.0439 67.3269C97.0167 67.0693 96.8889 66.8328 96.6885 66.6688L86.0244 58.1375C85.1516 57.4391 84.0671 57.0586 82.9492 57.0586C81.8314 57.0586 80.7468 57.4391 79.874 58.1375L69.21 66.6688C69.006 66.8319 68.8751 67.0693 68.8462 67.3289C68.8173 67.5884 68.8927 67.8488 69.0558 68.0528C69.2188 68.2568 69.4563 68.3877 69.7158 68.4166C69.9754 68.4455 70.2358 68.3701 70.4398 68.207L71.4648 67.3854V80.891H69.8242C69.5631 80.891 69.3128 80.9948 69.1282 81.1794C68.9436 81.364 68.8398 81.6143 68.8398 81.8754C68.8398 82.1365 68.9436 82.3869 69.1282 82.5715C69.3128 82.7561 69.5631 82.8598 69.8242 82.8598H96.0742C96.3353 82.8598 96.5857 82.7561 96.7703 82.5715C96.9549 82.3869 97.0586 82.1365 97.0586 81.8754C97.0586 81.6143 96.9549 81.364 96.7703 81.1794C96.5857 80.9948 96.3353 80.891 96.0742 80.891H94.4336V67.3854ZM79.3398 65.4692C79.3398 64.5119 79.7201 63.5938 80.397 62.917C81.0739 62.2401 81.992 61.8598 82.9492 61.8598C83.9065 61.8598 84.8245 62.2401 85.5014 62.917C86.1783 63.5938 86.5586 64.5119 86.5586 65.4692C86.5586 66.4264 86.1783 67.3445 85.5014 68.0214C84.8245 68.6983 83.9065 69.0785 82.9492 69.0785C81.992 69.0785 81.0739 68.6983 80.397 68.0214C79.7201 67.3445 79.3398 66.4264 79.3398 65.4692ZM83.0148 70.391C83.8863 70.391 84.6384 70.391 85.2408 70.4724C85.8866 70.559 86.5048 70.7546 87.0062 71.256C87.5075 71.7574 87.7031 72.3755 87.7897 73.0213C87.8658 73.5857 87.8711 74.2813 87.8711 75.0859V80.891H85.9023V75.3129C85.9023 74.3574 85.8997 73.7379 85.8393 73.2838C85.7816 72.8572 85.6897 72.7234 85.6136 72.6485C85.5388 72.5737 85.4049 72.4805 84.9783 72.4228C84.5229 72.3624 83.9047 72.3598 82.9492 72.3598C81.9937 72.3598 81.3742 72.3624 80.9201 72.4228C80.4935 72.4805 80.3597 72.5737 80.2848 72.6485C80.21 72.7234 80.1168 72.8572 80.0591 73.2838C79.9987 73.7392 79.9961 74.3574 79.9961 75.3129V80.891H78.0273V75.2473C78.0273 74.3758 78.0273 73.6237 78.1087 73.0213C78.1953 72.3755 78.3909 71.7574 78.8923 71.256C79.3937 70.7546 80.0132 70.559 80.6576 70.4724C81.26 70.391 82.0121 70.391 82.8849 70.391H83.0148Z" fill="#282828"/>
<path d="M81.3086 65.4668C81.3086 65.0317 81.4814 64.6144 81.7891 64.3067C82.0968 63.999 82.5141 63.8262 82.9492 63.8262C83.3843 63.8262 83.8016 63.999 84.1093 64.3067C84.417 64.6144 84.5898 65.0317 84.5898 65.4668C84.5898 65.9019 84.417 66.3192 84.1093 66.6269C83.8016 66.9346 83.3843 67.1074 82.9492 67.1074C82.5141 67.1074 82.0968 66.9346 81.7891 66.6269C81.4814 66.3192 81.3086 65.9019 81.3086 65.4668Z" fill="#282828"/>
<path d="M120.021 62.9762V64.748H114.016V62.9762H120.021ZM114.697 52.8043V64.748H112.441V52.8043H114.697ZM127.863 52.8043H130.119V60.7367C130.119 61.65 129.922 62.4184 129.528 63.0418C129.134 63.6598 128.598 64.1273 127.92 64.4445C127.242 64.7562 126.471 64.9121 125.607 64.9121C124.732 64.9121 123.953 64.7562 123.269 64.4445C122.586 64.1273 122.05 63.6598 121.661 63.0418C121.273 62.4184 121.079 61.65 121.079 60.7367V52.8043H123.335V60.7367C123.335 61.2945 123.428 61.7512 123.614 62.1066C123.8 62.4566 124.062 62.7164 124.401 62.8859C124.74 63.0555 125.142 63.1402 125.607 63.1402C126.077 63.1402 126.479 63.0555 126.813 62.8859C127.152 62.7164 127.412 62.4566 127.592 62.1066C127.773 61.7512 127.863 61.2945 127.863 60.7367V52.8043ZM134.056 52.8043L136.443 57.0617L138.839 52.8043H141.431L137.887 58.727L141.521 64.748H138.904L136.443 60.4086L133.991 64.748H131.366L135 58.727L131.456 52.8043H134.056ZM149.552 52.8043H151.808V60.7367C151.808 61.65 151.611 62.4184 151.217 63.0418C150.823 63.6598 150.287 64.1273 149.609 64.4445C148.931 64.7562 148.16 64.9121 147.296 64.9121C146.421 64.9121 145.642 64.7562 144.958 64.4445C144.275 64.1273 143.739 63.6598 143.35 63.0418C142.962 62.4184 142.768 61.65 142.768 60.7367V52.8043H145.024V60.7367C145.024 61.2945 145.117 61.7512 145.303 62.1066C145.489 62.4566 145.751 62.7164 146.09 62.8859C146.429 63.0555 146.831 63.1402 147.296 63.1402C147.766 63.1402 148.168 63.0555 148.502 62.8859C148.841 62.7164 149.101 62.4566 149.281 62.1066C149.462 61.7512 149.552 61.2945 149.552 60.7367V52.8043ZM153.949 52.8043H158.288C159.196 52.8043 159.975 52.941 160.626 53.2145C161.277 53.4879 161.777 53.8926 162.127 54.4285C162.477 54.9645 162.652 55.6234 162.652 56.4055C162.652 57.0234 162.543 57.5594 162.324 58.0133C162.105 58.4672 161.796 58.8473 161.397 59.1535C161.004 59.4598 160.539 59.7004 160.003 59.8754L159.297 60.2363H155.466L155.45 58.4563H158.313C158.778 58.4563 159.163 58.3742 159.47 58.2102C159.776 58.0461 160.005 57.8191 160.159 57.5293C160.317 57.2395 160.396 56.9086 160.396 56.5367C160.396 56.1375 160.32 55.793 160.167 55.5031C160.014 55.2078 159.781 54.9809 159.47 54.8223C159.158 54.6637 158.764 54.5844 158.288 54.5844H156.205V64.748H153.949V52.8043ZM160.692 64.748L157.927 59.3996L160.314 59.3914L163.112 64.6332V64.748H160.692ZM165.63 52.8043L168.255 58.3742L170.896 52.8043H173.374L169.404 60.3758V64.748H167.115V60.3758L163.136 52.8043H165.63ZM186.679 57.7344V59.5063H180.396V57.7344H186.679ZM181.011 52.8043V64.748H178.755V52.8043H181.011ZM188.353 52.8043V64.748H186.097V52.8043H188.353ZM200.321 58.4727V59.0879C200.321 59.9902 200.201 60.8023 199.96 61.5242C199.72 62.2406 199.378 62.8504 198.935 63.3535C198.492 63.8566 197.964 64.2422 197.352 64.5102C196.739 64.7781 196.058 64.9121 195.309 64.9121C194.571 64.9121 193.893 64.7781 193.275 64.5102C192.662 64.2422 192.132 63.8566 191.683 63.3535C191.235 62.8504 190.887 62.2406 190.641 61.5242C190.395 60.8023 190.272 59.9902 190.272 59.0879V58.4727C190.272 57.5648 190.395 56.7527 190.641 56.0363C190.887 55.3199 191.232 54.7102 191.675 54.207C192.118 53.6984 192.646 53.3102 193.258 53.0422C193.876 52.7742 194.554 52.6402 195.293 52.6402C196.042 52.6402 196.723 52.7742 197.335 53.0422C197.948 53.3102 198.475 53.6984 198.918 54.207C199.367 54.7102 199.711 55.3199 199.952 56.0363C200.198 56.7527 200.321 57.5648 200.321 58.4727ZM198.041 59.0879V58.4563C198.041 57.8055 197.98 57.234 197.86 56.7418C197.74 56.2441 197.562 55.8258 197.327 55.4867C197.092 55.1477 196.802 54.8934 196.457 54.7238C196.113 54.5488 195.725 54.4613 195.293 54.4613C194.855 54.4613 194.467 54.5488 194.128 54.7238C193.794 54.8934 193.51 55.1477 193.275 55.4867C193.039 55.8258 192.859 56.2441 192.733 56.7418C192.613 57.234 192.553 57.8055 192.553 58.4563V59.0879C192.553 59.7332 192.613 60.3047 192.733 60.8023C192.859 61.3 193.039 61.7211 193.275 62.0656C193.515 62.4047 193.805 62.6617 194.144 62.8367C194.483 63.0117 194.871 63.0992 195.309 63.0992C195.746 63.0992 196.135 63.0117 196.474 62.8367C196.813 62.6617 197.097 62.4047 197.327 62.0656C197.562 61.7211 197.74 61.3 197.86 60.8023C197.98 60.3047 198.041 59.7332 198.041 59.0879ZM203.217 52.8043H205.169L208.434 61.7949L211.691 52.8043H213.651L209.213 64.748H207.646L203.217 52.8043ZM202.232 52.8043H204.144L204.488 61.0648V64.748H202.232V52.8043ZM212.716 52.8043H214.636V64.748H212.38V61.0648L212.716 52.8043ZM224.848 62.9762V64.748H218.499V62.9762H224.848ZM219.188 52.8043V64.748H216.932V52.8043H219.188ZM224.02 57.7344V59.4652H218.499V57.7344H224.02ZM224.824 52.8043V54.5844H218.499V52.8043H224.824ZM232.666 61.6473C232.666 61.4176 232.63 61.2125 232.559 61.032C232.494 60.8461 232.371 60.6793 232.19 60.5316C232.015 60.3785 231.766 60.2309 231.444 60.0887C231.127 59.941 230.716 59.7879 230.213 59.6293C229.655 59.4543 229.136 59.2574 228.655 59.0387C228.173 58.8199 227.75 58.5656 227.383 58.2758C227.022 57.9859 226.741 57.6523 226.538 57.275C226.336 56.8922 226.235 56.4492 226.235 55.9461C226.235 55.4539 226.339 55.0055 226.546 54.6008C226.76 54.1961 227.061 53.8488 227.449 53.559C227.837 53.2637 228.294 53.0367 228.819 52.8781C229.349 52.7195 229.934 52.6402 230.574 52.6402C231.46 52.6402 232.226 52.8016 232.871 53.1242C233.522 53.4469 234.025 53.8844 234.38 54.4367C234.736 54.9891 234.914 55.6098 234.914 56.2988H232.666C232.666 55.927 232.587 55.5988 232.428 55.3145C232.275 55.0301 232.04 54.8059 231.723 54.6418C231.411 54.4777 231.017 54.3957 230.541 54.3957C230.082 54.3957 229.699 54.4641 229.393 54.6008C229.092 54.7375 228.865 54.9234 228.712 55.1586C228.564 55.3938 228.491 55.6563 228.491 55.9461C228.491 56.1648 228.543 56.3617 228.646 56.5367C228.75 56.7063 228.906 56.8676 229.114 57.0207C229.322 57.1684 229.579 57.3078 229.885 57.4391C230.197 57.5648 230.558 57.6906 230.968 57.8164C231.624 58.0133 232.198 58.232 232.691 58.4727C233.188 58.7133 233.601 58.9867 233.929 59.293C234.263 59.5992 234.512 59.9438 234.676 60.3266C234.845 60.7094 234.93 61.1441 234.93 61.6309C234.93 62.1449 234.829 62.6043 234.627 63.009C234.424 63.4137 234.134 63.7582 233.757 64.0426C233.38 64.327 232.926 64.543 232.395 64.6906C231.87 64.8383 231.282 64.9121 230.632 64.9121C230.052 64.9121 229.478 64.8355 228.909 64.6824C228.346 64.5238 227.834 64.2887 227.375 63.977C226.916 63.6598 226.549 63.2605 226.276 62.7793C226.002 62.2926 225.866 61.7238 225.866 61.073H228.13C228.13 61.4504 228.19 61.773 228.31 62.041C228.436 62.3035 228.611 62.5195 228.835 62.6891C229.065 62.8531 229.333 62.9734 229.639 63.05C229.945 63.1266 230.276 63.1648 230.632 63.1648C231.091 63.1648 231.468 63.102 231.764 62.9762C232.064 62.8449 232.289 62.6645 232.436 62.4348C232.589 62.2051 232.666 61.9426 232.666 61.6473ZM120.021 82.9762V84.748H114.016V82.9762H120.021ZM114.697 72.8043V84.748H112.441V72.8043H114.697ZM123.934 72.8043V84.748H121.678V72.8043H123.934ZM127.354 72.8043H129.307L132.571 81.7949L135.828 72.8043H137.789L133.351 84.748H131.784L127.354 72.8043ZM126.37 72.8043H128.281L128.626 81.0648V84.748H126.37V72.8043ZM136.854 72.8043H138.773V84.748H136.517V81.0648L136.854 72.8043ZM143.473 72.8043V84.748H141.218V72.8043H143.473ZM150.791 72.8043V84.748H148.543V72.8043H150.791ZM154.498 72.8043V74.5844H144.876V72.8043H154.498ZM163.916 82.9762V84.748H157.566V82.9762H163.916ZM158.255 72.8043V84.748H156V72.8043H158.255ZM163.087 77.7344V79.4652H157.566V77.7344H163.087ZM163.891 72.8043V74.5844H157.566V72.8043H163.891ZM169.051 84.748H166.475L166.491 82.9762H169.051C169.745 82.9762 170.328 82.823 170.798 82.5168C171.268 82.2051 171.624 81.7594 171.864 81.1797C172.105 80.5945 172.225 79.8945 172.225 79.0797V78.4645C172.225 77.8355 172.157 77.2805 172.02 76.7992C171.884 76.318 171.681 75.9133 171.413 75.5852C171.151 75.257 170.825 75.0082 170.437 74.8387C170.049 74.6691 169.603 74.5844 169.1 74.5844H166.426V72.8043H169.1C169.898 72.8043 170.626 72.9383 171.282 73.2063C171.944 73.4742 172.515 73.8598 172.996 74.3629C173.483 74.8605 173.855 75.4566 174.112 76.1512C174.375 76.8457 174.506 77.6223 174.506 78.4809V79.0797C174.506 79.9328 174.375 80.7094 174.112 81.4094C173.855 82.1039 173.483 82.7 172.996 83.1977C172.515 83.6953 171.941 84.0781 171.274 84.3461C170.607 84.6141 169.866 84.748 169.051 84.748ZM167.738 72.8043V84.748H165.482V72.8043H167.738Z" fill="black"/>
</g>
<defs>
<filter id="filter0_b_2396_1139" x="29.3984" y="13.0488" width="245.699" height="111.301" filterUnits="userSpaceOnUse" color-interpolation-filters="sRGB">
<feFlood flood-opacity="0" result="BackgroundImageFix"/>
<feGaussianBlur in="BackgroundImageFix" stdDeviation="10.5"/>
<feComposite in2="SourceAlpha" operator="in" result="effect1_backgroundBlur_2396_1139"/>
<feBlend mode="normal" in="SourceGraphic" in2="effect1_backgroundBlur_2396_1139" result="shape"/>
</filter>
<filter id="filter1_ddd_2396_1139" x="-0.00156212" y="0.448828" width="287.699" height="153.301" filterUnits="userSpaceOnUse" color-interpolation-filters="sRGB">
<feFlood flood-opacity="0" result="BackgroundImageFix"/>
<feColorMatrix in="SourceAlpha" type="matrix" values="0 0 0 0 0 0 0 0 0 0 0 0 0 0 0 0 0 0 127 0" result="hardAlpha"/>
<feOffset dx="-8.4" dy="8.4"/>
<feGaussianBlur stdDeviation="21"/>
<feComposite in2="hardAlpha" operator="out"/>
<feColorMatrix type="matrix" values="0 0 0 0 0 0 0 0 0 0 0 0 0 0 0 0 0 0 0.05 0"/>
<feBlend mode="normal" in2="BackgroundImageFix" result="effect1_dropShadow_2396_1139"/>
<feColorMatrix in="SourceAlpha" type="matrix" values="0 0 0 0 0 0 0 0 0 0 0 0 0 0 0 0 0 0 127 0" result="hardAlpha"/>
<feOffset dy="4.2"/>
<feGaussianBlur stdDeviation="2.1"/>
<feComposite in2="hardAlpha" operator="out"/>
<feColorMatrix type="matrix" values="0 0 0 0 0 0 0 0 0 0 0 0 0 0 0 0 0 0 0.25 0"/>
<feBlend mode="normal" in2="effect1_dropShadow_2396_1139" result="effect2_dropShadow_2396_1139"/>
<feColorMatrix in="SourceAlpha" type="matrix" values="0 0 0 0 0 0 0 0 0 0 0 0 0 0 0 0 0 0 127 0" result="hardAlpha"/>
<feOffset dy="4.2"/>
<feGaussianBlur stdDeviation="2.1"/>
<feComposite in2="hardAlpha" operator="out"/>
<feColorMatrix type="matrix" values="0 0 0 0 0 0 0 0 0 0 0 0 0 0 0 0 0 0 0.25 0"/>
<feBlend mode="normal" in2="effect2_dropShadow_2396_1139" result="effect3_dropShadow_2396_1139"/>
<feBlend mode="normal" in="SourceGraphic" in2="effect3_dropShadow_2396_1139" result="shape"/>
</filter>
</defs>
</svg>
