<svg width="60" height="60" viewBox="0 0 60 60" fill="none" xmlns="http://www.w3.org/2000/svg">
<path d="M58.8473 1.25693C60.0911 2.72693 60.2608 4.81884 59.3561 7.53267C58.4515 10.2465 56.925 12.6776 54.7766 14.8261L47.9496 21.6531L54.7342 51.166C54.8755 51.7031 54.7059 52.1695 54.2253 52.5653L48.7977 56.636C48.5998 56.8056 48.3312 56.8905 47.992 56.8905C47.8789 56.8905 47.78 56.8763 47.6952 56.8481C47.2711 56.7632 46.9743 56.5371 46.8047 56.1696L34.9741 34.6286L23.9915 45.6111L26.2389 53.8374C26.3803 54.318 26.2672 54.7561 25.8997 55.1519L21.829 59.2227C21.5745 59.4771 21.2494 59.6043 20.8537 59.6043H20.7689C20.3448 59.5477 20.0056 59.364 19.7512 59.053L11.7369 48.3673L1.0512 40.3531C0.740236 40.1552 0.556487 39.8301 0.499949 39.3778C0.47168 39.0103 0.59889 38.6569 0.881581 38.3177L4.95233 34.2045C5.20675 33.9501 5.53184 33.8229 5.92761 33.8229C6.09722 33.8229 6.2103 33.837 6.26684 33.8653L14.4931 36.1127L25.4757 25.1302L3.93464 13.2996C3.53887 13.0734 3.29859 12.7342 3.21378 12.2819C3.15724 11.8296 3.28445 11.4479 3.59541 11.137L9.02307 5.70931C9.41884 5.34181 9.84288 5.22874 10.2952 5.37008L38.4936 12.1123L45.2782 5.32768C47.4266 3.17923 49.8577 1.6527 52.5716 0.748091C55.2854 -0.15652 57.3773 0.0130948 58.8473 1.25693Z" fill="black"/>
</svg>
