<svg width="53" height="41" viewBox="0 0 53 41" fill="none" xmlns="http://www.w3.org/2000/svg">
<path fill-rule="evenodd" clip-rule="evenodd" d="M40.0955 0.850586C40.7654 0.850544 41.4285 0.985814 42.0449 1.24828C42.6614 1.51075 43.2184 1.89501 43.6827 2.37802L43.9812 2.71883L51.5686 12.2019C53.4518 14.5577 51.902 18.0081 48.9815 18.2519L48.6531 18.2643H46.2649V38.1658C46.2642 38.7998 46.0214 39.4097 45.5862 39.8707C45.1509 40.3318 44.556 40.6092 43.923 40.6464C43.2901 40.6836 42.6668 40.4776 42.1806 40.0707C41.6943 39.6637 41.3819 39.0864 41.307 38.4568L41.2896 38.1658V18.2643H36.3142V35.6781C36.3146 36.9333 35.8405 38.1423 34.987 39.0627C34.1335 39.9831 32.9637 40.5469 31.712 40.641L31.3389 40.6534H11.4374C10.1826 40.6532 8.97427 40.1789 8.0544 39.3254C7.13453 38.472 6.57111 37.3025 6.477 36.0512L6.46208 35.6781V18.2643H4.0739C1.05884 18.2643 -0.66761 14.8985 0.964307 12.468L1.16332 12.2019L8.74825 2.71883C9.16655 2.19547 9.68624 1.76198 10.2762 1.44437C10.8661 1.12676 11.5141 0.93156 12.1812 0.870487L12.6365 0.850586H40.0955ZM13.9251 18.2643H11.4374V35.6781H31.3389V18.2643H28.8512V28.215C28.8512 28.8748 28.5891 29.5076 28.1226 29.9741C27.656 30.4406 27.0233 30.7027 26.3635 30.7027H16.4128C15.753 30.7027 15.1203 30.4406 14.6537 29.9741C14.1872 29.5076 13.9251 28.8748 13.9251 28.215V18.2643ZM23.8758 18.2643H18.9005V25.7274H23.8758V18.2643ZM40.0955 5.82594H12.6315L6.66109 13.289H46.0659L40.0955 5.82594Z" fill="black"/>
</svg>
