<svg width="56" height="53" viewBox="0 0 56 53" fill="none" xmlns="http://www.w3.org/2000/svg">
<path opacity="0.3" fill-rule="evenodd" clip-rule="evenodd" d="M28.207 0.331056C28.6926 0.330687 29.1857 0.439169 29.6506 0.668618C30.2939 0.986098 30.8146 1.50679 31.1321 2.15007L37.7935 15.6476L52.6888 17.812C54.4716 18.071 55.7068 19.7262 55.4478 21.509C55.3446 22.2189 55.0103 22.875 54.4966 23.3758L43.7183 33.8821L46.2627 48.7172C46.5672 50.4928 45.3747 52.1791 43.5991 52.4836C42.8921 52.6049 42.1648 52.4897 41.5298 52.1559L28.207 45.1516V0.331056Z" fill="#282828"/>
<path fill-rule="evenodd" clip-rule="evenodd" d="M28.2082 0.331055V45.1516L14.8854 52.1559C13.2909 52.9942 11.3187 52.3811 10.4803 50.7866C10.1465 50.1516 10.0313 49.4243 10.1526 48.7173L12.697 33.8821L1.91865 23.3758C0.628624 22.1183 0.602228 20.0532 1.85969 18.7631C2.36042 18.2494 3.01652 17.9151 3.72643 17.812L18.6218 15.6476L25.2832 2.15007C25.851 0.999521 27.0066 0.331966 28.2082 0.331055Z" fill="#282828"/>
</svg>
