<svg width="61" height="61" viewBox="0 0 61 61" fill="none" xmlns="http://www.w3.org/2000/svg">
<g clip-path="url(#clip0_2522_1704)">
<path d="M58.9588 18.9362C51.4957 17.6924 37.8135 17.0705 30.3505 17.0705C22.8875 17.0705 9.20522 17.6924 1.74219 18.9362M58.9588 28.8869C51.4957 27.6431 37.8135 27.0212 30.3505 27.0212C22.8875 27.0212 9.20522 27.6431 1.74219 28.8869M31.5943 43.1911C31.5943 39.0814 33.1043 36.9719 35.6194 36.9719C38.1369 36.9719 39.0574 40.1387 39.0574 42.2482H39.1743C39.1743 42.2482 39.8858 40.1387 42.167 40.1387C44.4482 40.1387 44.6322 42.4846 44.6322 42.4846C46.8637 42.609 49.0703 42.7582 51.4957 42.9448M58.9588 11.4732V51.8979H57.7149C50.2519 50.6541 37.8135 50.0322 30.3505 50.0322C22.8875 50.0322 10.4491 50.6541 2.98603 51.8979H1.74219V11.4732C9.20522 10.2293 22.8875 9.60742 30.3505 9.60742C37.8135 9.60742 51.4957 10.2293 58.9588 11.4732Z" stroke="black" stroke-width="2.48768"/>
</g>
<defs>
<clipPath id="clip0_2522_1704">
<rect width="59.7043" height="59.7043" fill="white" transform="translate(0.5 0.901367)"/>
</clipPath>
</defs>
</svg>
