<svg width="79" height="79" viewBox="0 0 79 79" fill="none" xmlns="http://www.w3.org/2000/svg">
<path d="M43.0488 20.0088H13.6918C10.0888 20.0088 7.16797 22.9296 7.16797 26.5326V52.6277C7.16797 56.2307 10.0888 59.1515 13.6918 59.1515H43.0488C46.6518 59.1515 49.5726 56.2307 49.5726 52.6277V26.5326C49.5726 22.9296 46.6518 20.0088 43.0488 20.0088Z" fill="#282828"/>
<path opacity="0.3" fill-rule="evenodd" clip-rule="evenodd" d="M72.4077 27.8835V51.2764C72.4077 53.0779 70.9473 54.5383 69.1458 54.5383C68.2807 54.5383 67.4511 54.1946 66.8393 53.5829L55.1429 41.8864C53.869 40.6126 53.869 38.5473 55.1429 37.2734L66.8393 25.577C68.1132 24.3031 70.1785 24.3031 71.4524 25.577C72.0641 26.1887 72.4077 27.0184 72.4077 27.8835Z" fill="#282828"/>
</svg>
