<svg width="61" height="61" viewBox="0 0 61 61" fill="none" xmlns="http://www.w3.org/2000/svg">
<path d="M30.7178 15.3023C41.7091 15.3023 50.6193 13.0747 50.6193 10.3269C50.6193 7.57911 41.7091 5.35156 30.7178 5.35156C19.7266 5.35156 10.8164 7.57911 10.8164 10.3269C10.8164 13.0747 19.7266 15.3023 30.7178 15.3023Z" stroke="black" stroke-width="3.73152" stroke-linecap="round" stroke-linejoin="round"/>
<path d="M30.7198 31.4722C31.7095 31.4722 32.6586 31.0791 33.3584 30.3793C34.0582 29.6795 34.4513 28.7303 34.4513 27.7407C34.4513 25.253 30.7198 21.5215 30.7198 21.5215C30.7198 21.5215 26.9883 25.253 26.9883 27.7407C26.9883 28.7303 27.3814 29.6795 28.0812 30.3793C28.781 31.0791 29.7301 31.4722 30.7198 31.4722Z" stroke="black" stroke-width="3.73152" stroke-linecap="round" stroke-linejoin="round"/>
<path d="M48.1316 12.8149V26.6141C49.7162 27.6838 50.6193 28.9177 50.6193 30.2287C50.6193 34.3508 41.7084 37.6917 30.7178 37.6917C19.7273 37.6917 10.8164 34.3508 10.8164 30.2287C10.8164 28.9177 11.7194 27.6838 13.3041 26.6141V12.8149" stroke="black" stroke-width="3.73152" stroke-linecap="round" stroke-linejoin="round"/>
<path d="M48.1316 33.96V44.0276C49.7162 45.0973 50.6193 46.3312 50.6193 47.6422C50.6193 51.7643 41.7084 55.1052 30.7178 55.1052C19.7273 55.1052 10.8164 51.7643 10.8164 47.6422C10.8164 46.3312 11.7194 45.0973 13.3041 44.0276V33.96" stroke="black" stroke-width="3.73152" stroke-linecap="round" stroke-linejoin="round"/>
</svg>
