<svg width="51" height="44" viewBox="0 0 51 44" fill="none" xmlns="http://www.w3.org/2000/svg">
<path fill-rule="evenodd" clip-rule="evenodd" d="M34.717 0.852051C36.1027 0.852098 37.4611 1.23797 38.6399 1.96645C39.8188 2.69493 40.7715 3.73724 41.3914 4.97662L44.8393 11.87C45.4463 11.6212 46.0434 11.3525 46.6305 11.064C47.221 10.769 47.9044 10.7208 48.5305 10.9298C49.1566 11.1388 49.674 11.588 49.9689 12.1784C50.2638 12.7689 50.3121 13.4524 50.1031 14.0785C49.8941 14.7046 49.4449 15.222 48.8544 15.5169C48.2565 15.783 47.6552 16.0418 47.0509 16.2931L49.4415 21.0769C49.9604 22.1141 50.2304 23.258 50.2301 24.4178V30.7042C50.2301 31.7542 50.0085 32.7924 49.5798 33.7509C49.1512 34.7094 48.5251 35.5666 47.7424 36.2666V39.4111C47.7424 40.4007 47.3493 41.3498 46.6495 42.0496C45.9497 42.7494 45.0006 43.1426 44.0109 43.1426C43.0213 43.1426 42.0721 42.7494 41.3723 42.0496C40.6726 41.3498 40.2794 40.4007 40.2794 39.4111V38.1672H10.4273V39.4111C10.4273 40.4007 10.0341 41.3498 9.33434 42.0496C8.63454 42.7494 7.68542 43.1426 6.69576 43.1426C5.7061 43.1426 4.75697 42.7494 4.05718 42.0496C3.35738 41.3498 2.96424 40.4007 2.96424 39.4111V36.2666C1.43681 34.8984 0.476562 32.9132 0.476562 30.7042V24.4153C0.477027 23.2572 0.747013 22.1151 1.26516 21.0794L3.63591 16.3329C3.03555 16.0808 2.44266 15.8096 1.85722 15.5194C1.26971 15.2206 0.82312 14.703 0.613715 14.078C0.40431 13.4531 0.448862 12.7709 0.737769 12.1784C0.883693 11.886 1.08583 11.6251 1.33261 11.4108C1.5794 11.1965 1.86601 11.0329 2.17605 10.9294C2.48609 10.8259 2.81349 10.7845 3.13953 10.8076C3.46558 10.8307 3.78387 10.9178 4.07623 11.064C4.66498 11.3542 5.26203 11.6229 5.86736 11.87L9.31528 4.97911C9.93483 3.73926 10.8874 2.69645 12.0663 1.96751C13.2451 1.23858 14.6037 0.852329 15.9897 0.852051H34.717ZM14.1588 23.2412C13.1691 23.2412 12.22 23.6343 11.5202 24.3341C10.8204 25.0339 10.4273 25.983 10.4273 26.9727C10.4273 27.9623 10.8204 28.9115 11.5202 29.6113C12.22 30.311 13.1691 30.7042 14.1588 30.7042C15.1485 30.7042 16.0976 30.311 16.7974 29.6113C17.4972 28.9115 17.8903 27.9623 17.8903 26.9727C17.8903 25.983 17.4972 25.0339 16.7974 24.3341C16.0976 23.6343 15.1485 23.2412 14.1588 23.2412ZM36.5479 23.2412C35.5582 23.2412 34.6091 23.6343 33.9093 24.3341C33.2095 25.0339 32.8164 25.983 32.8164 26.9727C32.8164 27.9623 33.2095 28.9115 33.9093 29.6113C34.6091 30.311 35.5582 30.7042 36.5479 30.7042C37.5376 30.7042 38.4867 30.311 39.1865 29.6113C39.8863 28.9115 40.2794 27.9623 40.2794 26.9727C40.2794 25.983 39.8863 25.0339 39.1865 24.3341C38.4867 23.6343 37.5376 23.2412 36.5479 23.2412ZM34.717 5.82741H15.9897C15.5803 5.82735 15.1771 5.92835 14.8161 6.12146C14.455 6.31457 14.1472 6.59382 13.92 6.93442L13.7657 7.20309L10.6064 13.5168C14.4573 14.6711 19.6466 15.7781 25.3533 15.7781C30.6819 15.7781 35.5553 14.8129 39.3092 13.7457L40.0978 13.5168L36.9409 7.20309C36.7579 6.83694 36.4873 6.52164 36.1531 6.28513C35.819 6.04863 35.4316 5.89824 35.0254 5.84731L34.7195 5.82741H34.717Z" fill="black"/>
</svg>
