<svg width="47" height="43" viewBox="0 0 47 43" fill="none" xmlns="http://www.w3.org/2000/svg">
<path fill-rule="evenodd" clip-rule="evenodd" d="M42.5219 16.9941L44.1983 18.3361C44.532 18.5962 44.9548 18.7142 45.375 18.6646C45.7952 18.615 46.1789 18.4018 46.4429 18.0712C46.7069 17.7406 46.83 17.3193 46.7854 16.8985C46.7409 16.4778 46.5323 16.0916 46.2048 15.8236L28.7869 1.88924C27.3613 0.74847 25.5899 0.126953 23.7641 0.126953C21.9383 0.126953 20.1668 0.74847 18.7413 1.88924L1.32329 15.8236C0.990113 16.09 0.776398 16.4778 0.72916 16.9017C0.681921 17.3257 0.805028 17.751 1.0714 18.0842C1.33777 18.4174 1.72558 18.6311 2.14952 18.6783C2.57346 18.7256 2.99881 18.6025 3.33198 18.3361L5.00625 16.9941V39.0533H2.32656C1.90014 39.0533 1.49119 39.2227 1.18967 39.5242C0.888144 39.8257 0.71875 40.2347 0.71875 40.6611C0.71875 41.0875 0.888144 41.4965 1.18967 41.798C1.49119 42.0995 1.90014 42.2689 2.32656 42.2689H45.2016C45.628 42.2689 46.0369 42.0995 46.3385 41.798C46.64 41.4965 46.8094 41.0875 46.8094 40.6611C46.8094 40.2347 46.64 39.8257 46.3385 39.5242C46.0369 39.2227 45.628 39.0533 45.2016 39.0533H42.5219V16.9941ZM17.8688 13.8642C17.8688 12.3007 18.4899 10.8012 19.5954 9.69561C20.701 8.59002 22.2005 7.96891 23.7641 7.96891C25.3276 7.96891 26.8271 8.59002 27.9327 9.69561C29.0383 10.8012 29.6594 12.3007 29.6594 13.8642C29.6594 15.4278 29.0383 16.9273 27.9327 18.0328C26.8271 19.1384 25.3276 19.7595 23.7641 19.7595C22.2005 19.7595 20.701 19.1384 19.5954 18.0328C18.4899 16.9273 17.8688 15.4278 17.8688 13.8642ZM23.8713 21.9033C25.2947 21.9033 26.5231 21.9033 27.5071 22.0362C28.5618 22.1777 29.5715 22.4971 30.3904 23.316C31.2093 24.1349 31.5287 25.1446 31.6702 26.1994C31.7946 27.1212 31.8031 28.2574 31.8031 29.5715V39.0533H28.5875V29.9424C28.5875 28.3817 28.5832 27.3699 28.4846 26.6281C28.3903 25.9314 28.2402 25.7127 28.1159 25.5905C27.9937 25.4683 27.775 25.3161 27.0783 25.2218C26.3344 25.1232 25.3247 25.1189 23.7641 25.1189C22.2034 25.1189 21.1916 25.1232 20.4498 25.2218C19.7531 25.3161 19.5344 25.4683 19.4123 25.5905C19.2901 25.7127 19.1379 25.9314 19.0435 26.6281C18.9449 27.372 18.9406 28.3817 18.9406 29.9424V39.0533H15.725V29.8352C15.725 28.4117 15.725 27.1833 15.8579 26.1994C15.9994 25.1446 16.3188 24.1349 17.1377 23.316C17.9566 22.4971 18.9685 22.1777 20.0211 22.0362C21.0051 21.9033 22.2334 21.9033 23.659 21.9033H23.8713Z" fill="#282828"/>
</svg>
