<svg width="48" height="55" viewBox="0 0 48 55" fill="none" xmlns="http://www.w3.org/2000/svg">
<path d="M36.3251 24.6602C36.0605 24.078 35.764 23.5108 35.437 22.9611L23.2723 4.90059C22.2275 3.34579 20.0706 2.90298 18.4561 3.91298C18.0519 4.16866 17.7047 4.50484 17.4362 4.90059L5.26397 22.9611C1.04736 30.0212 2.68922 38.9843 9.16216 44.2208C12.3448 46.7851 16.3144 48.1733 20.4015 48.1514M37.768 48.1439C36.4484 48.1439 35.1829 47.6197 34.2499 46.6866C33.3168 45.7536 32.7926 44.4881 32.7926 43.1685C32.7926 41.849 33.3168 40.5835 34.2499 39.6504C35.1829 38.7174 36.4484 38.1932 37.768 38.1932M37.768 48.1439C39.0875 48.1439 40.353 47.6197 41.2861 46.6866C42.2191 45.7536 42.7433 44.4881 42.7433 43.1685C42.7433 41.849 42.2191 40.5835 41.2861 39.6504C40.353 38.7174 39.0875 38.1932 37.768 38.1932M37.768 48.1439V51.8754M37.768 38.1932V34.4617M45.3081 38.8151L42.0766 40.6809M33.4618 45.6562L30.2278 47.522M30.2278 38.8151L33.4618 40.6809M42.0766 45.6562L45.3106 47.522" stroke="black" stroke-width="4.97536" stroke-linecap="round" stroke-linejoin="round"/>
</svg>
