<svg width="76" height="38" viewBox="0 0 76 38" fill="none" xmlns="http://www.w3.org/2000/svg">
<path d="M73.9409 7.59586L49.0097 15.0227L43.1221 12.0795C42.0858 11.5615 40.9432 11.2917 39.7847 11.2912H33.1508V5.69396H39.6809C40.7118 5.69396 41.5467 4.85903 41.5467 3.8282V1.96244C41.5467 0.931607 40.7118 0.0966797 39.6809 0.0966797H21.0233C19.9925 0.0966797 19.1576 0.931607 19.1576 1.96244V3.8282C19.1576 4.85903 19.9925 5.69396 21.0233 5.69396H27.5535V11.2912H21.0233L4.89853 8.35966C4.67582 8.31855 4.44982 8.29786 4.22335 8.29785C2.21067 8.29785 0.5 9.93389 0.5 12.0305V23.1026C0.5 24.9054 1.78971 26.4517 3.56451 26.7735L11.6946 28.2533V33.6803C11.6946 35.7408 13.3656 37.4118 15.4261 37.4118H47.4506C48.4477 37.4118 49.4039 37.013 50.1047 36.3029L74.8563 11.2609C75.0312 11.086 75.1292 10.8481 75.1292 10.6009V8.49259C75.1303 7.87339 74.5368 7.42561 73.9409 7.59586ZM11.6946 22.5639L6.09728 21.5459V14.2659L11.6946 15.284V22.5639ZM64.5573 32.4361C64.5573 35.1834 66.7846 37.4118 69.5331 37.4118C72.2816 37.4118 74.5088 35.1846 74.5088 32.4361C74.5088 29.6876 69.5331 22.4858 69.5331 22.4858C69.5331 22.4858 64.5573 29.6888 64.5573 32.4361Z" fill="black"/>
</svg>
