<svg width="52" height="53" viewBox="0 0 52 53" fill="none" xmlns="http://www.w3.org/2000/svg">
<path d="M50.1537 1.28303C50.9677 1.88596 51.45 2.85065 51.45 3.86558V37.6296C51.45 42.0712 47.129 45.6687 41.8031 45.6687C36.4772 45.6687 32.1562 42.0712 32.1562 37.6296C32.1562 33.1881 36.4772 29.5906 41.8031 29.5906C42.9286 29.5906 44.0139 29.7514 45.0187 30.0528V15.4217L19.2938 23.1392V44.0609C19.2938 48.5025 14.9728 52.1 9.64688 52.1C4.321 52.1 0 48.5025 0 44.0609C0 39.6193 4.321 36.0218 9.64688 36.0218C10.7723 36.0218 11.8576 36.1826 12.8625 36.4841V13.5125C12.8625 12.0956 13.797 10.8395 15.1536 10.4275L47.3099 0.780593C48.2846 0.489177 49.3397 0.670056 50.1537 1.28303Z" fill="#282828"/>
</svg>
