<svg width="42" height="40" viewBox="0 0 42 40" fill="none" xmlns="http://www.w3.org/2000/svg">
<path d="M38.6159 8.23955L38.6459 8.2031L30.0709 1.25735L27.3697 4.58874L31.8009 8.17738C30.7016 8.84536 29.8288 9.8286 29.2959 10.9993C28.7629 12.1699 28.5945 13.4739 28.8125 14.7415C29.1341 16.6688 30.461 18.3345 32.1782 19.267C34.0968 20.311 35.7797 20.2145 37.276 19.6829L37.2439 32.9356C37.2464 33.2905 37.1605 33.6405 36.9938 33.9539C36.827 34.2673 36.5848 34.5342 36.289 34.7304C35.9932 34.9267 35.6531 35.046 35.2995 35.0777C34.946 35.1095 34.5901 35.0525 34.264 34.9121C34.0087 34.8029 33.7771 34.6449 33.5823 34.4469C33.3842 34.2483 33.2271 34.0126 33.12 33.7533C33.013 33.494 32.9581 33.2161 32.9585 32.9356L33.0078 28.648C33.01 27.8042 32.8449 26.9683 32.5223 26.1887C32.1996 25.409 31.7256 24.7009 31.1277 24.1054C30.5305 23.5069 29.8211 23.032 29.0402 22.708C28.2593 22.3839 27.4221 22.217 26.5766 22.2168H24.4328V5.0668C24.4328 3.92968 23.9811 2.83914 23.177 2.03508C22.373 1.23101 21.2824 0.779297 20.1453 0.779297H5.13906C4.00195 0.779297 2.9114 1.23101 2.10734 2.03508C1.30328 2.83914 0.851563 3.92968 0.851562 5.0668V35.0793C0.851563 36.2164 1.30328 37.307 2.10734 38.111C2.9114 38.9151 4.00195 39.3668 5.13906 39.3668H20.1453C21.2824 39.3668 22.373 38.9151 23.177 38.111C23.9811 37.307 24.4328 36.2164 24.4328 35.0793V26.5043H26.5766C26.8681 26.5043 27.1489 26.5622 27.4148 26.6715C27.925 26.8949 28.3317 27.3031 28.5531 27.8141C28.6643 28.078 28.7212 28.3617 28.7203 28.648L28.6689 32.9356C28.6689 33.8059 28.8382 34.6484 29.1748 35.4394C29.4985 36.2091 29.9637 36.8972 30.5489 37.4782C31.144 38.0796 31.853 38.5563 32.6344 38.8806C33.4158 39.2049 34.2541 39.3702 35.1001 39.3668C35.9705 39.3668 36.8108 39.1996 37.604 38.8609C38.3715 38.5393 39.0618 38.0741 39.6427 37.4867C40.2429 36.8907 40.7188 36.1816 41.043 35.4004C41.3672 34.6191 41.5332 33.7814 41.5314 32.9356L41.5828 13.6418C41.5807 12.5648 41.3079 11.5057 40.7894 10.5617C40.271 9.61769 39.5236 8.81918 38.6159 8.23955ZM20.1453 11.498H5.13906V5.0668H20.1453V11.498ZM35.1516 15.7855C34.583 15.7855 34.0377 15.5597 33.6357 15.1577C33.2337 14.7556 33.0078 14.2104 33.0078 13.6418C33.0078 13.0732 33.2337 12.528 33.6357 12.1259C34.0377 11.7239 34.583 11.498 35.1516 11.498C35.7201 11.498 36.2654 11.7239 36.6674 12.1259C37.0695 12.528 37.2953 13.0732 37.2953 13.6418C37.2953 14.2104 37.0695 14.7556 36.6674 15.1577C36.2654 15.5597 35.7201 15.7855 35.1516 15.7855Z" fill="#282828"/>
</svg>
