<svg width="31" height="42" viewBox="0 0 31 42" fill="none" xmlns="http://www.w3.org/2000/svg">
<path d="M17.6645 33.4259C17.6679 33.4747 17.6696 33.524 17.6696 33.5737V39.8599C17.6696 41.0172 16.7314 41.9553 15.5742 41.9553C14.4169 41.9553 13.4788 41.0172 13.4788 39.8599V33.5737C13.4788 33.524 13.4805 33.4747 13.4839 33.4259C6.37311 32.4113 0.90625 26.297 0.90625 18.9058H5.09708C5.09708 24.6921 9.78783 29.3828 15.5742 29.3828C21.3605 29.3828 26.0513 24.6921 26.0513 18.9058H30.2421C30.2421 26.297 24.7752 32.4113 17.6645 33.4259Z" fill="#282828"/>
<path d="M21.8577 6.33068C21.8577 2.85888 19.0432 0.0444336 15.5714 0.0444336C12.0996 0.0444336 9.28516 2.85888 9.28516 6.33068V18.9032C9.28516 22.375 12.0996 25.1894 15.5714 25.1894C19.0432 25.1894 21.8577 22.375 21.8577 18.9032V6.33068Z" fill="#282828"/>
</svg>
