<svg width="53" height="51" viewBox="0 0 53 51" fill="none" xmlns="http://www.w3.org/2000/svg">
<path d="M3.96314 22.6811C3.96314 22.1863 4.15971 21.7117 4.50961 21.3618C4.85951 21.0119 5.33407 20.8153 5.8289 20.8153H9.56042C10.0552 20.8153 10.5298 21.0119 10.8797 21.3618C11.2296 21.7117 11.4262 22.1863 11.4262 22.6811C11.4262 23.1759 11.2296 23.6505 10.8797 24.0004C10.5298 24.3503 10.0552 24.5469 9.56042 24.5469H5.8289C5.33407 24.5469 4.85951 24.3503 4.50961 24.0004C4.15971 23.6505 3.96314 23.1759 3.96314 22.6811ZM13.159 12.1279C13.5091 12.478 13.9839 12.6747 14.479 12.6747C14.9741 12.6747 15.449 12.478 15.799 12.1279C16.1491 11.7778 16.3458 11.303 16.3458 10.8079C16.3458 10.3128 16.1491 9.83794 15.799 9.48785L13.159 6.85013C12.8063 6.51501 12.3365 6.33093 11.85 6.33716C11.3635 6.34339 10.8987 6.53943 10.5546 6.88348C10.2106 7.22753 10.0145 7.69236 10.0083 8.17888C10.0021 8.6654 10.1862 9.13511 10.5213 9.48785L13.159 12.1279ZM26.3522 7.75503C26.8471 7.75503 27.3216 7.55846 27.6715 7.20856C28.0214 6.85866 28.218 6.3841 28.218 5.88927V2.15775C28.218 1.66292 28.0214 1.18836 27.6715 0.83846C27.3216 0.488563 26.8471 0.291992 26.3522 0.291992C25.8574 0.291992 25.3829 0.488563 25.033 0.83846C24.6831 1.18836 24.4865 1.66292 24.4865 2.15775V5.88927C24.4865 6.3841 24.6831 6.85866 25.033 7.20856C25.3829 7.55846 25.8574 7.75503 26.3522 7.75503ZM38.2255 12.6736C38.4706 12.6738 38.7133 12.6257 38.9398 12.5321C39.1663 12.4385 39.3721 12.3011 39.5455 12.1279L42.1832 9.48785C42.5183 9.13511 42.7024 8.6654 42.6962 8.17888C42.6899 7.69236 42.4939 7.22753 42.1499 6.88348C41.8058 6.53943 41.341 6.34339 40.8545 6.33716C40.3679 6.33093 39.8982 6.51501 39.5455 6.85013L36.9054 9.48785C36.6442 9.74879 36.4663 10.0814 36.3942 10.4435C36.3221 10.8056 36.359 11.181 36.5003 11.5221C36.6417 11.8632 36.881 12.1547 37.1881 12.3597C37.4952 12.5647 37.8562 12.6739 38.2255 12.6736ZM41.2783 22.6811C41.2783 23.1759 41.4749 23.6505 41.8248 24.0004C42.1747 24.3503 42.6492 24.5469 43.1441 24.5469H46.8756C47.3704 24.5469 47.845 24.3503 48.1949 24.0004C48.5448 23.6505 48.7413 23.1759 48.7413 22.6811C48.7413 22.1863 48.5448 21.7117 48.1949 21.3618C47.845 21.0119 47.3704 20.8153 46.8756 20.8153H43.1441C42.6492 20.8153 42.1747 21.0119 41.8248 21.3618C41.4749 21.7117 41.2783 22.1863 41.2783 22.6811ZM17.0235 24.5469C17.5183 24.5469 17.9928 24.3503 18.3427 24.0004C18.6926 23.6505 18.8892 23.1759 18.8892 22.6811C18.8892 20.7018 19.6755 18.8035 21.0751 17.4039C22.4747 16.0043 24.3729 15.2181 26.3522 15.2181C28.3316 15.2181 30.2298 16.0043 31.6294 17.4039C33.029 18.8035 33.8153 20.7018 33.8153 22.6811C33.8153 23.1759 34.0118 23.6505 34.3617 24.0004C34.7116 24.3503 35.1862 24.5469 35.681 24.5469C36.1759 24.5469 36.6504 24.3503 37.0003 24.0004C37.3502 23.6505 37.5468 23.1759 37.5468 22.6811C37.5468 19.7121 36.3674 16.8647 34.268 14.7654C32.1686 12.666 29.3212 11.4865 26.3522 11.4865C23.3833 11.4865 20.5359 12.666 18.4365 14.7654C16.3371 16.8647 15.1577 19.7121 15.1577 22.6811C15.1577 23.1759 15.3543 23.6505 15.7042 24.0004C16.0541 24.3503 16.5286 24.5469 17.0235 24.5469ZM29.8972 30.1441H22.8073C22.5943 30.1441 22.3876 30.2169 22.2217 30.3505C22.0558 30.4842 21.9407 30.6706 21.8954 30.8788L20.4331 37.6072H32.2714L30.8091 30.8788C30.7638 30.6706 30.6487 30.4842 30.4828 30.3505C30.3169 30.2169 30.1102 30.1441 29.8972 30.1441ZM3.90483 41.8051L0.464843 47.8828C0.267877 48.2307 0.187852 48.6326 0.236558 49.0294C0.285264 49.4262 0.460124 49.7968 0.735378 50.0868C0.916933 50.2735 1.13465 50.4214 1.37524 50.5212C1.61582 50.6211 1.87424 50.6708 2.1347 50.6675H13.0237C13.2368 50.6675 13.4434 50.5947 13.6093 50.4611C13.7752 50.3274 13.8904 50.141 13.9356 49.9328L15.8014 41.3387H4.71644C4.55206 41.338 4.39042 41.3808 4.2479 41.4627C4.10537 41.5446 3.98703 41.6628 3.90483 41.8051ZM52.2303 47.8688L48.7997 41.8051C48.7175 41.6628 48.5991 41.5446 48.4566 41.4627C48.3141 41.3808 48.1524 41.338 47.988 41.3387H36.9008L38.7665 49.9328C38.8118 50.141 38.927 50.3274 39.0929 50.4611C39.2588 50.5947 39.4654 50.6675 39.6784 50.6675H50.5511C50.8116 50.6708 51.07 50.6211 51.3106 50.5212C51.5512 50.4214 51.7689 50.2735 51.9505 50.0868C52.2287 49.799 52.407 49.4294 52.4591 49.0326C52.5112 48.6357 52.4342 48.2326 52.2396 47.8828L52.2303 47.8688ZM45.6372 36.2078L42.7406 31.077C42.5772 30.7883 42.3398 30.5484 42.0529 30.3819C41.7659 30.2155 41.4398 30.1286 41.1081 30.1301H35.6251C35.4857 30.1301 35.3481 30.1613 35.2224 30.2214C35.0966 30.2815 34.986 30.369 34.8985 30.4775C34.811 30.586 34.749 30.7127 34.7169 30.8484C34.6848 30.984 34.6836 31.1251 34.7132 31.2612L36.0892 37.5932H44.8233C44.9855 37.5928 45.1448 37.5502 45.2856 37.4695C45.4263 37.3888 45.5435 37.2727 45.6257 37.1329C45.7079 36.993 45.7522 36.8341 45.7542 36.6719C45.7562 36.5097 45.7159 36.3497 45.6372 36.2078ZM17.0794 30.1441H11.5894C11.2577 30.1426 10.9316 30.2295 10.6446 30.3959C10.3577 30.5624 10.1203 30.8023 9.95689 31.091L7.0673 36.2078C6.98516 36.3501 6.94204 36.5115 6.9423 36.6758C6.94257 36.8401 6.9862 37.0014 7.0688 37.1433C7.15139 37.2853 7.27001 37.403 7.41267 37.4845C7.55533 37.5659 7.71697 37.6082 7.88123 37.6072H16.6153L17.9913 31.2752C18.0209 31.1391 18.0197 30.998 17.9876 30.8624C17.9555 30.7267 17.8935 30.6 17.806 30.4915C17.7185 30.383 17.6079 30.2955 17.4821 30.2354C17.3564 30.1753 17.2188 30.1441 17.0794 30.1441ZM33.083 41.3387H19.6215L17.8397 49.5364C17.8101 49.6725 17.8114 49.8136 17.8434 49.9493C17.8755 50.0849 17.9376 50.2116 18.025 50.3201C18.1125 50.4286 18.2232 50.5161 18.3489 50.5762C18.4746 50.6363 18.6122 50.6675 18.7516 50.6675H33.9529C34.0922 50.6675 34.2299 50.6363 34.3556 50.5762C34.4813 50.5161 34.592 50.4286 34.6795 50.3201C34.7669 50.2116 34.829 50.0849 34.861 49.9493C34.8931 49.8136 34.8944 49.6725 34.8648 49.5364L33.083 41.3387Z" fill="black"/>
</svg>
