<svg width="47" height="52" viewBox="0 0 47 52" fill="none" xmlns="http://www.w3.org/2000/svg">
<path d="M45.1433 17.5101V33.7643C45.1433 36.4258 43.7174 38.8972 41.4124 40.2518L27.2968 48.4027C24.9917 49.7334 22.1401 49.7334 19.8112 48.4027L5.69573 40.2518C3.39066 38.921 1.96484 36.4496 1.96484 33.7643V17.5101C1.96484 14.8485 3.39066 12.377 5.69573 11.0225L19.8112 2.87161C22.1163 1.54084 24.9679 1.54084 27.2968 2.87161L41.4124 11.0225C43.7174 12.377 45.1433 14.8248 45.1433 17.5101Z" stroke="black" stroke-width="3.23838" stroke-linecap="round" stroke-linejoin="round"/>
<path d="M23.5642 23.2609C26.6223 23.2609 29.1011 20.7818 29.1011 17.7238C29.1011 14.6659 26.6223 12.187 23.5642 12.187C20.5063 12.187 18.0273 14.6659 18.0273 17.7238C18.0273 20.7818 20.5063 23.2609 23.5642 23.2609Z" stroke="black" stroke-width="3.23838" stroke-linecap="round" stroke-linejoin="round"/>
<path d="M33.0695 36.7113C33.0695 32.4338 28.8158 28.9644 23.564 28.9644C18.3123 28.9644 14.0586 32.4338 14.0586 36.7113" stroke="black" stroke-width="3.23838" stroke-linecap="round" stroke-linejoin="round"/>
</svg>
