<svg width="29" height="30" viewBox="0 0 29 30" fill="none" xmlns="http://www.w3.org/2000/svg">
<g clip-path="url(#clip0_2418_1369)">
<path d="M14.0508 0.953125C6.29102 0.953125 0.00390625 7.24023 0.00390625 15C0.00390625 22.7598 6.29102 29.0469 14.0508 29.0469C21.8105 29.0469 28.0977 22.7598 28.0977 15C28.0977 7.24023 21.8105 0.953125 14.0508 0.953125ZM18.582 10.4688C19.5846 10.4688 20.3945 11.2787 20.3945 12.2812C20.3945 13.2838 19.5846 14.0938 18.582 14.0938C17.5795 14.0938 16.7695 13.2838 16.7695 12.2812C16.7695 11.2787 17.5795 10.4688 18.582 10.4688ZM9.51953 10.4688C10.5221 10.4688 11.332 11.2787 11.332 12.2812C11.332 13.2838 10.5221 14.0938 9.51953 14.0938C8.51699 14.0938 7.70703 13.2838 7.70703 12.2812C7.70703 11.2787 8.51699 10.4688 9.51953 10.4688ZM20.5531 20.109C18.9389 22.0461 16.5713 23.1562 14.0508 23.1562C11.5303 23.1562 9.16269 22.0461 7.54844 20.109C6.77812 19.1857 8.17148 18.0303 8.9418 18.9479C10.2105 20.4715 12.0684 21.3381 14.0508 21.3381C16.0332 21.3381 17.891 20.4658 19.1598 18.9479C19.9188 18.0303 21.3178 19.1857 20.5531 20.109Z" fill="#282828"/>
</g>
<defs>
<clipPath id="clip0_2418_1369">
<rect width="28.1" height="29" fill="white" transform="translate(0 0.5)"/>
</clipPath>
</defs>
</svg>
