<svg width="27" height="24" viewBox="0 0 27 24" fill="none" xmlns="http://www.w3.org/2000/svg">
<path fill-rule="evenodd" clip-rule="evenodd" d="M24.1758 9.74356L25.1207 10.5C25.3088 10.6466 25.5471 10.7131 25.784 10.6852C26.0208 10.6572 26.2371 10.537 26.3859 10.3507C26.5347 10.1643 26.6041 9.92685 26.579 9.6897C26.5538 9.45254 26.4363 9.23485 26.2517 9.08381L16.434 1.22965C15.6305 0.586649 14.632 0.236328 13.6029 0.236328C12.5737 0.236328 11.5753 0.586649 10.7717 1.22965L0.954031 9.08381C0.766236 9.23395 0.645775 9.45255 0.619149 9.6915C0.592523 9.93046 0.661912 10.1702 0.812052 10.358C0.962192 10.5458 1.18078 10.6663 1.41974 10.6929C1.6587 10.7195 1.89844 10.6501 2.08624 10.5L3.02995 9.74356V22.1773H1.51953C1.27918 22.1773 1.04867 22.2728 0.878716 22.4427C0.708761 22.6127 0.613281 22.8432 0.613281 23.0836C0.613281 23.3239 0.708761 23.5544 0.878716 23.7244C1.04867 23.8943 1.27918 23.9898 1.51953 23.9898H25.6862C25.9266 23.9898 26.1571 23.8943 26.327 23.7244C26.497 23.5544 26.5924 23.3239 26.5924 23.0836C26.5924 22.8432 26.497 22.6127 26.327 22.4427C26.1571 22.2728 25.9266 22.1773 25.6862 22.1773H24.1758V9.74356ZM10.2799 7.9794C10.2799 7.09811 10.63 6.25291 11.2532 5.62974C11.8764 5.00657 12.7216 4.65648 13.6029 4.65648C14.4842 4.65648 15.3294 5.00657 15.9525 5.62974C16.5757 6.25291 16.9258 7.09811 16.9258 7.9794C16.9258 8.86069 16.5757 9.70589 15.9525 10.3291C15.3294 10.9522 14.4842 11.3023 13.6029 11.3023C12.7216 11.3023 11.8764 10.9522 11.2532 10.3291C10.63 9.70589 10.2799 8.86069 10.2799 7.9794ZM13.6633 12.5106C14.4656 12.5106 15.158 12.5106 15.7126 12.5856C16.3071 12.6653 16.8762 12.8454 17.3378 13.3069C17.7994 13.7685 17.9794 14.3376 18.0592 14.9321C18.1293 15.4517 18.1341 16.0921 18.1341 16.8329V22.1773H16.3216V17.0419C16.3216 16.1622 16.3192 15.5919 16.2636 15.1738C16.2104 14.7811 16.1259 14.6579 16.0558 14.589C15.9869 14.5201 15.8637 14.4343 15.4709 14.3811C15.0517 14.3256 14.4825 14.3231 13.6029 14.3231C12.7232 14.3231 12.1529 14.3256 11.7348 14.3811C11.3421 14.4343 11.2188 14.5201 11.1499 14.589C11.0811 14.6579 10.9953 14.7811 10.9421 15.1738C10.8865 15.5931 10.8841 16.1622 10.8841 17.0419V22.1773H9.07162V16.9815C9.07162 16.1791 9.07162 15.4868 9.14653 14.9321C9.22628 14.3376 9.40632 13.7685 9.86791 13.3069C10.3295 12.8454 10.8998 12.6653 11.4931 12.5856C12.0477 12.5106 12.7401 12.5106 13.5437 12.5106H13.6633Z" fill="#282828"/>
</svg>
