<svg width="30" height="30" viewBox="0 0 30 30" fill="none" xmlns="http://www.w3.org/2000/svg">
<g clip-path="url(#clip0_2418_1377)">
<path d="M28.2693 0.359895C28.7281 0.699739 29 1.24349 29 1.81556V20.8468C29 23.3503 26.5645 25.3781 23.5625 25.3781C20.5605 25.3781 18.125 23.3503 18.125 20.8468C18.125 18.3433 20.5605 16.3156 23.5625 16.3156C24.1969 16.3156 24.8086 16.4062 25.375 16.5761V8.32923L10.875 12.6792V24.4718C10.875 26.9753 8.43945 29.0031 5.4375 29.0031C2.43555 29.0031 0 26.9753 0 24.4718C0 21.9683 2.43555 19.9406 5.4375 19.9406C6.07188 19.9406 6.68359 20.0312 7.25 20.2011V7.25306C7.25 6.45443 7.77676 5.74642 8.54141 5.51419L26.6664 0.0766916C27.2158 -0.0875662 27.8105 0.014387 28.2693 0.359895Z" fill="#282828"/>
</g>
<defs>
<clipPath id="clip0_2418_1377">
<rect width="29" height="29" fill="white" transform="translate(0.101562 0.5)"/>
</clipPath>
</defs>
</svg>
