<svg width="45" height="44" viewBox="0 0 45 44" fill="none" xmlns="http://www.w3.org/2000/svg">
<path d="M33.9215 42.2H21.6121C20.7981 42.2 20.1231 41.525 20.1231 40.711C20.1231 39.8969 20.7981 39.2219 21.6121 39.2219H33.9215C36.0459 39.2219 38.1305 37.4547 38.4879 35.3502L41.1284 19.5468C41.3667 18.1173 40.5727 16.0722 39.4609 15.1787L25.702 4.17988C24.1137 2.90923 21.4732 2.90921 19.9047 4.16L6.14606 15.1787C5.01439 16.092 4.24009 18.1173 4.47834 19.5468L5.03425 22.9019C5.17322 23.7159 4.61734 24.4902 3.80333 24.6093C2.98932 24.7681 2.2349 24.1924 2.09592 23.3784L1.54001 20.0431C1.12308 17.5813 2.31433 14.4244 4.27986 12.856L18.0385 1.83703C20.6989 -0.307186 24.888 -0.287312 27.5683 1.8569L41.327 12.856C43.2727 14.4244 44.4639 17.5813 44.0668 20.0431L41.4263 35.8466C40.8306 39.3607 37.4753 42.2 33.9215 42.2Z" fill="black"/>
<path d="M8.90656 42.5773C8.09255 42.5773 7.43738 41.9221 7.41752 41.128C7.35796 38.4477 5.59099 36.6807 2.91073 36.6211C2.09672 36.6013 1.44152 35.9263 1.46138 35.0924C1.48123 34.2784 2.13641 33.6431 2.95041 33.6431H2.9901C7.25867 33.7423 10.3162 36.78 10.3956 41.0485C10.4154 41.8625 9.76025 42.5574 8.94625 42.5773C8.92639 42.5773 8.92641 42.5773 8.90656 42.5773Z" fill="black"/>
<path d="M14.8627 42.5774C14.0487 42.5774 13.3737 41.9222 13.3737 41.1082C13.3538 39.7978 13.1354 38.547 12.7383 37.3757C11.7258 34.477 9.5617 32.3326 6.66304 31.3002C5.49167 30.8833 4.24088 30.6651 2.93053 30.6651C2.11652 30.6651 1.44151 29.9901 1.46136 29.1562C1.46136 28.3422 2.13639 27.687 2.9504 27.687H2.97025C4.61812 27.7069 6.18655 27.9848 7.65574 28.501C11.4081 29.8312 14.2075 32.6306 15.5377 36.383C16.0539 37.8522 16.3319 39.4405 16.3517 41.0685C16.3517 41.9023 15.6966 42.5774 14.8627 42.5774Z" fill="black"/>
<path d="M2.95023 43.0738C1.83841 43.0738 0.964844 42.1804 0.964844 41.0884C0.964844 39.9964 1.85827 39.103 2.95023 39.103C4.04219 39.103 4.93561 39.9964 4.93561 41.0884C4.93561 42.1804 4.06204 43.0738 2.95023 43.0738Z" fill="black"/>
</svg>
